<svg xmlns="http://www.w3.org/2000/svg" data-name="Warstwa 1" viewBox="0 0 24 30" x="0px" y="0px"><title>Arrows</title><path d="M17.9,12.7l-5.5,5.5a.5.5,0,0,1-.35.15.51.51,0,0,1-.36-.15l-5.5-5.5A.5.5,0,1,1,6.9,12l5.15,5.15L17.19,12a.51.51,0,0,1,.71,0A.5.5,0,0,1,17.9,12.7Zm-6.1-.49a.5.5,0,0,0,.34.13h0a.51.51,0,0,0,.35-.15l5.3-5.69a.5.5,0,1,0-.73-.69l-5,5.33-5.33-5a.49.49,0,0,0-.7,0,.5.5,0,0,0,0,.71Z"/><text x="0" y="39" fill="#000000" font-size="5px" font-weight="bold" font-family="'Helvetica Neue', Helvetica, Arial-Unicode, Arial, Sans-serif">Created by Martin</text><text x="0" y="44" fill="#000000" font-size="5px" font-weight="bold" font-family="'Helvetica Neue', Helvetica, Arial-Unicode, Arial, Sans-serif">from the Noun Project</text></svg>